Jinko-Black.ufo
<glyph name="ampersand" format="1">
  <advance width="1660"/>
  <unicode hex="0026"/>
  <outline>
    <contour>
      <point x="737" y="999" type="curve"/>
      <point x="791" y="1052"/>
      <point x="844" y="1126"/>
      <point x="844" y="1174" type="curve" smooth="yes"/>
      <point x="844" y="1244"/>
      <point x="775" y="1281"/>
      <point x="708" y="1281" type="curve" smooth="yes"/>
      <point x="647" y="1281"/>
      <point x="589" y="1251"/>
      <point x="589" y="1187" type="curve" smooth="yes"/>
      <point x="589" y="1131"/>
      <point x="702" y="1026"/>
    </contour>
    <contour>
      <point x="921" y="300" type="curve"/>
      <point x="521" y="693" type="line"/>
      <point x="490" y="643"/>
      <point x="476" y="593"/>
      <point x="476" y="545" type="curve" smooth="yes"/>
      <point x="476" y="382"/>
      <point x="634" y="247"/>
      <point x="780" y="247" type="curve" smooth="yes"/>
      <point x="831" y="247"/>
      <point x="880" y="263"/>
    </contour>
    <contour>
      <point x="1187" y="1178" type="curve" smooth="yes"/>
      <point x="1187" y="1017"/>
      <point x="1075" y="885"/>
      <point x="892" y="842" type="curve"/>
      <point x="1175" y="549" type="line"/>
      <point x="1175" y="773" type="line"/>
      <point x="1548" y="774" type="line"/>
      <point x="1523" y="647"/>
      <point x="1508" y="504"/>
      <point x="1371" y="376" type="curve"/>
      <point x="1448" y="304"/>
      <point x="1808" y="0"/>
      <point x="1808" y="0" type="curve"/>
      <point x="1234" y="0" type="line"/>
      <point x="1099" y="131" type="line" smooth="yes"/>
      <point x="1101" y="129" type="line"/>
      <point x="995" y="35"/>
      <point x="829" y="-25"/>
      <point x="667" y="-25" type="curve" smooth="yes"/>
      <point x="314" y="-25"/>
      <point x="100" y="183"/>
      <point x="100" y="444" type="curve" smooth="yes"/>
      <point x="100" y="645"/>
      <point x="231" y="777"/>
      <point x="351" y="854" type="curve"/>
      <point x="262" y="936"/>
      <point x="205" y="1013"/>
      <point x="205" y="1154" type="curve" smooth="yes"/>
      <point x="205" y="1322"/>
      <point x="342" y="1505"/>
      <point x="695" y="1505" type="curve" smooth="yes"/>
      <point x="1013" y="1505"/>
      <point x="1187" y="1366"/>
    </contour>
  </outline>
</glyph>
<glyph name="A" format="1">
  <advance width="1498"/>
  <unicode hex="0041"/>
  <outline>
    <contour>
      <point x="628" y="559" type="line"/>
      <point x="864" y="559" type="line"/>
      <point x="748" y="979" type="line"/>
    </contour>
    <contour>
      <point x="-7" y="0" type="line"/>
      <point x="523" y="1481" type="line"/>
      <point x="986" y="1481" type="line"/>
      <point x="1505" y="0" type="line"/>
      <point x="1034" y="0" type="line"/>
      <point x="961" y="237" type="line"/>
      <point x="529" y="237" type="line"/>
      <point x="458" y="0" type="line"/>
    </contour>
  </outline>
</glyph>
<glyph name="B" format="1">
  <advance width="1504"/>
  <unicode hex="0042"/>
  <outline>
    <contour>
      <point x="604" y="878" type="line"/>
      <point x="809" y="878"/>
      <point x="913" y="889"/>
      <point x="913" y="1028" type="curve" smooth="yes"/>
      <point x="913" y="1163"/>
      <point x="811" y="1177"/>
      <point x="604" y="1177" type="curve"/>
    </contour>
    <contour>
      <point x="604" y="305" type="line"/>
      <point x="745" y="305" type="line" smooth="yes"/>
      <point x="813" y="305"/>
      <point x="941" y="329"/>
      <point x="941" y="455" type="curve" smooth="yes"/>
      <point x="941" y="609"/>
      <point x="795" y="623"/>
      <point x="626" y="623" type="curve" smooth="yes"/>
      <point x="604" y="623" type="line"/>
    </contour>
    <contour>
      <point x="1104" y="773" type="line"/>
      <point x="1273" y="731"/>
      <point x="1428" y="615"/>
      <point x="1428" y="419" type="curve" smooth="yes"/>
      <point x="1428" y="119"/>
      <point x="1140" y="0"/>
      <point x="811" y="0" type="curve" smooth="yes"/>
      <point x="146" y="0" type="line"/>
      <point x="146" y="1481" type="line"/>
      <point x="568" y="1481" type="line" smooth="yes"/>
      <point x="1024" y="1481"/>
      <point x="1328" y="1411"/>
      <point x="1328" y="1087" type="curve" smooth="yes"/>
      <point x="1329" y="947"/>
      <point x="1256" y="841"/>
      <point x="1104" y="781" type="curve"/>
    </contour>
  </outline>
</glyph>
<glyph name="C" format="1">
  <advance width="1452"/>
  <unicode hex="0043"/>
  <outline>
    <contour>
      <point x="885" y="-24" type="curve" smooth="yes"/>
      <point x="368" y="-24"/>
      <point x="99" y="251"/>
      <point x="99" y="738" type="curve" smooth="yes"/>
      <point x="99" y="1226"/>
      <point x="422" y="1505"/>
      <point x="885" y="1505" type="curve" smooth="yes"/>
      <point x="1075" y="1505"/>
      <point x="1221" y="1468"/>
      <point x="1380" y="1398" type="curve"/>
      <point x="1289" y="1039" type="line"/>
      <point x="1289" y="1039"/>
      <point x="1135" y="1158"/>
      <point x="941" y="1158" type="curve" smooth="yes"/>
      <point x="673" y="1158"/>
      <point x="573" y="966"/>
      <point x="573" y="734" type="curve" smooth="yes"/>
      <point x="573" y="479"/>
      <point x="670" y="319"/>
      <point x="947" y="319" type="curve" smooth="yes"/>
      <point x="1120" y="319"/>
      <point x="1301" y="432"/>
      <point x="1301" y="432" type="curve"/>
      <point x="1380" y="102" type="line"/>
      <point x="1203" y="11"/>
      <point x="1078" y="-24"/>
    </contour>
  </outline>
</glyph>
<glyph name="D" format="1">
  <advance width="1601"/>
  <unicode hex="0044"/>
  <outline>
    <contour>
      <point x="146" y="0" type="line"/>
      <point x="146" y="1481" type="line"/>
      <point x="638" y="1481" type="line" smooth="yes"/>
      <point x="1180" y="1481"/>
      <point x="1502" y="1306"/>
      <point x="1502" y="737" type="curve" smooth="yes"/>
      <point x="1502" y="164"/>
      <point x="1160" y="0"/>
      <point x="628" y="0" type="curve" smooth="yes"/>
    </contour>
    <contour>
      <point x="607" y="326" type="line"/>
      <point x="669" y="326" type="line" smooth="yes"/>
      <point x="916" y="326"/>
      <point x="1027" y="427"/>
      <point x="1027" y="735" type="curve" smooth="yes"/>
      <point x="1027" y="1021"/>
      <point x="938" y="1155"/>
      <point x="757" y="1155" type="curve" smooth="yes"/>
      <point x="607" y="1155" type="line"/>
    </contour>
  </outline>
</glyph>
<glyph name="E" format="1">
  <advance width="1344"/>
  <unicode hex="0045"/>
  <outline>
    <contour>
      <point x="146" y="0" type="line"/>
      <point x="146" y="1481" type="line"/>
      <point x="1274" y="1481" type="line"/>
      <point x="1274" y="1155" type="line"/>
      <point x="604" y="1155" type="line"/>
      <point x="604" y="928" type="line"/>
      <point x="1185" y="928" type="line"/>
      <point x="1185" y="606" type="line"/>
      <point x="604" y="606" type="line"/>
      <point x="604" y="326" type="line"/>
      <point x="1272" y="326" type="line"/>
      <point x="1272" y="0" type="line"/>
    </contour>
  </outline>
</glyph>
<glyph name="G" format="1">
  <advance width="1563"/>
  <unicode hex="0047"/>
  <outline>
    <contour>
      <point x="866" y="-24" type="curve" smooth="yes"/>
      <point x="377" y="-24"/>
      <point x="99" y="268"/>
      <point x="99" y="740" type="curve" smooth="yes"/>
      <point x="99" y="1235"/>
      <point x="368" y="1505"/>
      <point x="861" y="1505" type="curve" smooth="yes"/>
      <point x="1159" y="1505"/>
      <point x="1257" y="1458"/>
      <point x="1456" y="1341" type="curve"/>
      <point x="1370" y="1010" type="line" smooth="yes"/>
      <point x="1370" y="1013"/>
      <point x="1179" y="1158"/>
      <point x="970" y="1158" type="curve" smooth="yes"/>
      <point x="681" y="1158"/>
      <point x="573" y="1000"/>
      <point x="573" y="746" type="curve" smooth="yes"/>
      <point x="573" y="488"/>
      <point x="663" y="312"/>
      <point x="866" y="312" type="curve" smooth="yes"/>
      <point x="996" y="312"/>
      <point x="1126" y="339"/>
      <point x="1128" y="335" type="curve"/>
      <point x="1128" y="552" type="line"/>
      <point x="804" y="552" type="line"/>
      <point x="804" y="832" type="line"/>
      <point x="1453" y="832" type="line"/>
      <point x="1453" y="159" type="line"/>
      <point x="1401" y="62"/>
      <point x="1093" y="-24"/>
    </contour>
  </outline>
</glyph>
<glyph name="H" format="1">
  <advance width="1615"/>
  <unicode hex="0048"/>
  <outline>
    <contour>
      <point x="146" y="0" type="line"/>
      <point x="146" y="1481" type="line"/>
      <point x="607" y="1481" type="line"/>
      <point x="607" y="941" type="line"/>
      <point x="1008" y="941" type="line"/>
      <point x="1008" y="1481" type="line"/>
      <point x="1469" y="1481" type="line"/>
      <point x="1469" y="0" type="line"/>
      <point x="1008" y="0" type="line"/>
      <point x="1008" y="617" type="line"/>
      <point x="607" y="617" type="line"/>
      <point x="607" y="0" type="line"/>
    </contour>
  </outline>
</glyph>
<glyph name="I" format="1">
  <advance width="979"/>
  <unicode hex="0049"/>
  <outline>
    <contour>
      <point x="37" y="0" type="line"/>
      <point x="37" y="326" type="line"/>
      <point x="259" y="326" type="line"/>
      <point x="259" y="1155" type="line"/>
      <point x="37" y="1155" type="line"/>
      <point x="37" y="1481" type="line"/>
      <point x="942" y="1481" type="line"/>
      <point x="942" y="1155" type="line"/>
      <point x="720" y="1155" type="line"/>
      <point x="720" y="326" type="line"/>
      <point x="942" y="326" type="line"/>
      <point x="942" y="0" type="line"/>
    </contour>
  </outline>
</glyph>
<glyph name="J" format="1">
  <advance width="1221"/>
  <unicode hex="004A"/>
  <outline>
    <contour>
      <point x="445" y="-21" type="curve" smooth="yes"/>
      <point x="257" y="-21"/>
      <point x="122" y="-2"/>
      <point x="5" y="69" type="curve"/>
      <point x="76" y="396" type="line"/>
      <point x="176" y="355"/>
      <point x="271" y="338"/>
      <point x="356" y="338" type="curve" smooth="yes"/>
      <point x="493" y="338"/>
      <point x="612" y="430"/>
      <point x="612" y="652" type="curve" smooth="yes"/>
      <point x="612" y="1108" type="line"/>
      <point x="327" y="1108" type="line"/>
      <point x="327" y="1481" type="line"/>
      <point x="1074" y="1481" type="line"/>
      <point x="1074" y="473" type="line" smooth="yes"/>
      <point x="1074" y="169"/>
      <point x="776" y="-21"/>
    </contour>
  </outline>
</glyph>
<glyph name="K" format="1">
  <advance width="1567"/>
  <unicode hex="004B"/>
  <outline>
    <contour>
      <point x="146" y="0" type="line"/>
      <point x="146" y="1481" type="line"/>
      <point x="604" y="1481" type="line"/>
      <point x="604" y="859" type="line"/>
      <point x="606" y="859" type="line"/>
      <point x="687" y="992" type="line"/>
      <point x="1029" y="1481" type="line"/>
      <point x="1549" y="1481" type="line"/>
      <point x="1057" y="796" type="line"/>
      <point x="1579" y="0" type="line"/>
      <point x="1025" y="0" type="line"/>
      <point x="754" y="446" type="line"/>
      <point x="671" y="576" type="line"/>
      <point x="604" y="474" type="line"/>
      <point x="604" y="0" type="line"/>
    </contour>
  </outline>
</glyph>
<glyph name="M" format="1">
  <advance width="1914"/>
  <unicode hex="004D"/>
  <outline>
    <contour>
      <point x="146" y="0" type="line"/>
      <point x="146" y="1481" type="line"/>
      <point x="648" y="1481" type="line"/>
      <point x="954" y="707" type="line"/>
      <point x="1262" y="1481" type="line"/>
      <point x="1768" y="1481" type="line"/>
      <point x="1768" y="0" type="line"/>
      <point x="1312" y="0" type="line"/>
      <point x="1312" y="617" type="line" smooth="yes"/>
      <point x="1314" y="785" type="line"/>
      <point x="1108" y="233" type="line"/>
      <point x="781" y="233" type="line"/>
      <point x="576" y="785" type="line"/>
      <point x="580" y="617" type="line" smooth="yes"/>
      <point x="580" y="0" type="line"/>
    </contour>
  </outline>
</glyph>
<glyph name="N" format="1">
  <advance width="1615"/>
  <unicode hex="004E"/>
  <outline>
    <contour>
      <point x="146" y="0" type="line"/>
      <point x="146" y="1481" type="line"/>
      <point x="646" y="1481" type="line"/>
      <point x="1060" y="827" type="line"/>
      <point x="1050" y="1136" type="line"/>
      <point x="1050" y="1481" type="line"/>
      <point x="1468" y="1481" type="line"/>
      <point x="1468" y="0" type="line"/>
      <point x="1048" y="0" type="line"/>
      <point x="558" y="858" type="line"/>
      <point x="566" y="504" type="line" smooth="yes"/>
      <point x="566" y="0" type="line"/>
    </contour>
  </outline>
</glyph>
<glyph name="O" format="1">
  <advance width="1606"/>
  <unicode hex="004F"/>
  <outline>
    <contour>
      <point x="804" y="-24" type="curve" smooth="yes"/>
      <point x="346" y="-24"/>
      <point x="100" y="243"/>
      <point x="100" y="740" type="curve" smooth="yes"/>
      <point x="100" y="1240"/>
      <point x="349" y="1505"/>
      <point x="804" y="1505" type="curve" smooth="yes"/>
      <point x="1260" y="1505"/>
      <point x="1506" y="1242"/>
      <point x="1506" y="740" type="curve" smooth="yes"/>
      <point x="1506" y="243"/>
      <point x="1262" y="-24"/>
    </contour>
    <contour>
      <point x="806" y="319" type="curve" smooth="yes"/>
      <point x="970" y="319"/>
      <point x="1036" y="453"/>
      <point x="1036" y="740" type="curve" smooth="yes"/>
      <point x="1036" y="1037"/>
      <point x="966" y="1158"/>
      <point x="806" y="1158" type="curve" smooth="yes"/>
      <point x="647" y="1158"/>
      <point x="572" y="1041"/>
      <point x="572" y="740" type="curve" smooth="yes"/>
      <point x="572" y="442"/>
      <point x="645" y="319"/>
    </contour>
  </outline>
</glyph>
<glyph name="P" format="1">
  <advance width="1463"/>
  <unicode hex="0050"/>
  <outline>
    <contour>
      <point x="607" y="789" type="line"/>
      <point x="795" y="790"/>
      <point x="976" y="803"/>
      <point x="976" y="1002" type="curve" smooth="yes"/>
      <point x="976" y="1188"/>
      <point x="731" y="1164"/>
      <point x="664" y="1164" type="curve" smooth="yes"/>
      <point x="607" y="1164" type="line"/>
    </contour>
    <contour>
      <point x="146" y="0" type="line"/>
      <point x="146" y="1481" type="line"/>
      <point x="881" y="1481" type="line" smooth="yes"/>
      <point x="1158" y="1481"/>
      <point x="1447" y="1349"/>
      <point x="1447" y="1008" type="curve" smooth="yes"/>
      <point x="1447" y="712"/>
      <point x="1234" y="471"/>
      <point x="859" y="471" type="curve" smooth="yes"/>
      <point x="607" y="471" type="line"/>
      <point x="607" y="0" type="line"/>
    </contour>
  </outline>
</glyph>
<glyph name="T" format="1">
  <advance width="1272"/>
  <unicode hex="0054"/>
  <outline>
    <contour>
      <point x="404" y="0" type="line"/>
      <point x="404" y="1155" type="line"/>
      <point x="-6" y="1155" type="line"/>
      <point x="-6" y="1481" type="line"/>
      <point x="1278" y="1481" type="line"/>
      <point x="1278" y="1155" type="line"/>
      <point x="868" y="1155" type="line"/>
      <point x="868" y="0" type="line"/>
    </contour>
  </outline>
</glyph>
<glyph name="U" format="1">
  <advance width="1577"/>
  <unicode hex="0055"/>
  <outline>
    <contour>
      <point x="788" y="-24" type="curve" smooth="yes"/>
      <point x="396" y="-24"/>
      <point x="132" y="176"/>
      <point x="132" y="521" type="curve" smooth="yes"/>
      <point x="132" y="1481" type="line"/>
      <point x="593" y="1481" type="line"/>
      <point x="593" y="572" type="line" smooth="yes"/>
      <point x="593" y="418"/>
      <point x="647" y="319"/>
      <point x="787" y="319" type="curve" smooth="yes"/>
      <point x="918" y="319"/>
      <point x="985" y="412"/>
      <point x="985" y="575" type="curve" smooth="yes"/>
      <point x="985" y="1481" type="line"/>
      <point x="1445" y="1481" type="line"/>
      <point x="1445" y="522" type="line" smooth="yes"/>
      <point x="1445" y="184"/>
      <point x="1197" y="-24"/>
    </contour>
  </outline>
</glyph>
<glyph name="V" format="1">
  <advance width="1337"/>
  <unicode hex="0056"/>
  <outline>
    <contour>
      <point x="467" y="0" type="line"/>
      <point x="-29" y="1481" type="line"/>
      <point x="444" y="1481" type="line"/>
      <point x="609" y="879" type="line"/>
      <point x="672" y="639" type="line"/>
      <point x="673" y="639" type="line"/>
      <point x="733" y="882" type="line"/>
      <point x="907" y="1481" type="line"/>
      <point x="1366" y="1481" type="line"/>
      <point x="865" y="0" type="line"/>
    </contour>
  </outline>
</glyph>
<glyph name="W" format="1">
  <advance width="2096"/>
  <unicode hex="0057"/>
  <outline>
    <contour>
      <point x="382" y="0" type="line"/>
      <point x="4" y="1481" type="line"/>
      <point x="488" y="1481" type="line"/>
      <point x="604" y="801" type="line"/>
      <point x="630" y="623" type="line"/>
      <point x="634" y="623" type="line"/>
      <point x="696" y="865" type="line"/>
      <point x="854" y="1481" type="line"/>
      <point x="1246" y="1481" type="line"/>
      <point x="1416" y="784" type="line" smooth="yes"/>
      <point x="1456" y="625" type="line"/>
      <point x="1482" y="777" type="line" smooth="yes"/>
      <point x="1614" y="1481" type="line"/>
      <point x="2092" y="1481" type="line"/>
      <point x="1716" y="0" type="line"/>
      <point x="1232" y="0" type="line"/>
      <point x="1040" y="703" type="line"/>
      <point x="862" y="0" type="line"/>
    </contour>
  </outline>
</glyph>
<glyph name="X" format="1">
  <advance width="1401"/>
  <unicode hex="0058"/>
  <outline>
    <contour>
      <point x="-32" y="0" type="line"/>
      <point x="410" y="755" type="line"/>
      <point x="-10" y="1481" type="line"/>
      <point x="532" y="1481" type="line"/>
      <point x="600" y="1326" type="line" smooth="yes"/>
      <point x="702" y="1098" type="line"/>
      <point x="806" y="1319" type="line"/>
      <point x="872" y="1481" type="line"/>
      <point x="1380" y="1481" type="line"/>
      <point x="978" y="780" type="line"/>
      <point x="1432" y="0" type="line"/>
      <point x="894" y="0" type="line"/>
      <point x="778" y="241" type="line"/>
      <point x="692" y="426" type="line"/>
      <point x="586" y="233" type="line"/>
      <point x="476" y="0" type="line"/>
    </contour>
  </outline>
</glyph>
<glyph name="Z" format="1">
  <advance width="1257"/>
  <unicode hex="005A"/>
  <outline>
    <contour>
      <point x="80" y="0" type="line"/>
      <point x="80" y="320" type="line"/>
      <point x="644" y="1155" type="line"/>
      <point x="112" y="1155" type="line"/>
      <point x="112" y="1481" type="line"/>
      <point x="1166" y="1481" type="line"/>
      <point x="1166" y="1161" type="line"/>
      <point x="605" y="326" type="line"/>
      <point x="1196" y="326" type="line"/>
      <point x="1196" y="0" type="line"/>
    </contour>
  </outline>
</glyph>
<glyph name="a" format="1">
  <advance width="1184"/>
  <unicode hex="0061"/>
  <outline>
    <contour>
      <point x="536" y="225" type="curve" smooth="yes"/>
      <point x="580" y="225"/>
      <point x="701" y="246"/>
      <point x="701" y="493" type="curve"/>
      <point x="564" y="476"/>
      <point x="448" y="466"/>
      <point x="448" y="332" type="curve" smooth="yes"/>
      <point x="448" y="290"/>
      <point x="475" y="225"/>
    </contour>
    <contour>
      <point x="380" y="-24" type="curve" smooth="yes"/>
      <point x="181" y="-24"/>
      <point x="52" y="124"/>
      <point x="52" y="306" type="curve" smooth="yes"/>
      <point x="52" y="621"/>
      <point x="343" y="654"/>
      <point x="701" y="654" type="curve"/>
      <point x="701" y="749"/>
      <point x="675" y="787"/>
      <point x="506" y="787" type="curve" smooth="yes"/>
      <point x="403" y="787"/>
      <point x="252" y="755"/>
      <point x="197" y="730" type="curve"/>
      <point x="131" y="986" type="line"/>
      <point x="162" y="999"/>
      <point x="363" y="1059"/>
      <point x="521" y="1059" type="curve" smooth="yes"/>
      <point x="882" y="1059"/>
      <point x="1087" y="975"/>
      <point x="1087" y="733" type="curve" smooth="yes"/>
      <point x="1087" y="0" type="line"/>
      <point x="722" y="0" type="line"/>
      <point x="722" y="219" type="line"/>
      <point x="659" y="56"/>
      <point x="525" y="-24"/>
    </contour>
  </outline>
</glyph>
<glyph name="b" format="1">
  <advance width="1311"/>
  <unicode hex="0062"/>
  <outline>
    <contour>
      <point x="826" y="527" type="curve" smooth="yes"/>
      <point x="826" y="733.376"/>
      <point x="746.266" y="786.812"/>
      <point x="666.774" y="786.812" type="curve" smooth="yes"/>
      <point x="587.768" y="786.812"/>
      <point x="509" y="734"/>
      <point x="509" y="734" type="curve"/>
      <point x="509" y="271" type="line"/>
      <point x="548.504" y="265.709"/>
      <point x="583.784" y="262.795"/>
      <point x="615.126" y="262.795" type="curve" smooth="yes"/>
      <point x="766.454" y="262.795"/>
      <point x="826" y="330.721"/>
    </contour>
    <contour>
      <point x="828" y="-24" type="curve" smooth="yes"/>
      <point x="706" y="-24"/>
      <point x="588" y="44"/>
      <point x="509" y="132" type="curve"/>
      <point x="509" y="0" type="line"/>
      <point x="121" y="0" type="line"/>
      <point x="121" y="1480.99" type="line"/>
      <point x="509" y="1480.99" type="line"/>
      <point x="509" y="936" type="line"/>
      <point x="617" y="1005"/>
      <point x="681" y="1059"/>
      <point x="816" y="1059" type="curve" smooth="yes"/>
      <point x="1115" y="1059"/>
      <point x="1229" y="848"/>
      <point x="1229" y="522" type="curve" smooth="yes"/>
      <point x="1229" y="230"/>
      <point x="1107" y="-24"/>
    </contour>
  </outline>
</glyph>
<glyph name="c" format="1">
  <advance width="1107"/>
  <unicode hex="0063"/>
  <outline>
    <contour>
      <point x="664" y="-24" type="curve" smooth="yes"/>
      <point x="358" y="-24"/>
      <point x="80" y="138"/>
      <point x="80" y="518" type="curve" smooth="yes"/>
      <point x="80" y="922"/>
      <point x="380" y="1059"/>
      <point x="657" y="1059" type="curve" smooth="yes"/>
      <point x="781" y="1059"/>
      <point x="920" y="1029"/>
      <point x="1056" y="954" type="curve"/>
      <point x="998" y="705" type="line"/>
      <point x="919" y="758"/>
      <point x="825" y="787"/>
      <point x="738" y="787" type="curve" smooth="yes"/>
      <point x="600" y="787"/>
      <point x="483" y="711"/>
      <point x="483" y="517" type="curve" smooth="yes"/>
      <point x="483" y="307"/>
      <point x="626" y="248"/>
      <point x="730" y="248" type="curve" smooth="yes"/>
      <point x="842" y="248"/>
      <point x="950" y="290"/>
      <point x="1002" y="324" type="curve"/>
      <point x="1061" y="73" type="line"/>
      <point x="954" y="14"/>
      <point x="808" y="-24"/>
    </contour>
  </outline>
</glyph>
<glyph name="d" format="1">
  <advance width="1309"/>
  <unicode hex="0064"/>
  <outline>
    <contour>
      <point x="485" y="527" type="curve" smooth="yes"/>
      <point x="485" y="331"/>
      <point x="545" y="263"/>
      <point x="696" y="263" type="curve" smooth="yes"/>
      <point x="727" y="263"/>
      <point x="762" y="266"/>
      <point x="802" y="271" type="curve"/>
      <point x="802" y="734" type="line"/>
      <point x="802" y="734"/>
      <point x="723" y="787"/>
      <point x="644" y="787" type="curve" smooth="yes"/>
      <point x="565" y="787"/>
      <point x="485" y="733"/>
    </contour>
    <contour>
      <point x="500" y="-24" type="curve" smooth="yes"/>
      <point x="223" y="-24"/>
      <point x="82" y="218"/>
      <point x="82" y="536" type="curve" smooth="yes"/>
      <point x="82" y="847"/>
      <point x="228" y="1059"/>
      <point x="515" y="1059" type="curve" smooth="yes"/>
      <point x="625" y="1059"/>
      <point x="700" y="1024"/>
      <point x="802" y="961" type="curve"/>
      <point x="802" y="1481" type="line"/>
      <point x="1190" y="1481" type="line"/>
      <point x="1190" y="0" type="line"/>
      <point x="802" y="0" type="line"/>
      <point x="802" y="129" type="line"/>
      <point x="739" y="37"/>
      <point x="621" y="-24"/>
    </contour>
  </outline>
</glyph>
<glyph name="e" format="1">
  <advance width="1175"/>
  <unicode hex="0065"/>
  <outline>
    <contour>
      <point x="433" y="638" type="curve"/>
      <point x="795" y="638" type="line"/>
      <point x="791" y="774"/>
      <point x="702" y="833"/>
      <point x="603" y="833" type="curve" smooth="yes"/>
      <point x="520" y="833"/>
      <point x="439" y="741"/>
    </contour>
    <contour>
      <point x="679" y="-24" type="curve" smooth="yes"/>
      <point x="305" y="-24"/>
      <point x="80" y="131"/>
      <point x="80" y="515" type="curve" smooth="yes"/>
      <point x="80" y="878"/>
      <point x="297" y="1059"/>
      <point x="623" y="1059" type="curve" smooth="yes"/>
      <point x="910" y="1059"/>
      <point x="1084" y="901"/>
      <point x="1084" y="617" type="curve" smooth="yes"/>
      <point x="1084" y="447" type="line"/>
      <point x="442" y="447" type="line"/>
      <point x="456" y="295"/>
      <point x="583" y="241"/>
      <point x="709" y="241" type="curve" smooth="yes"/>
      <point x="799" y="241"/>
      <point x="871" y="269"/>
      <point x="946" y="307" type="curve"/>
      <point x="976" y="307" type="line"/>
      <point x="1064" y="91" type="line"/>
      <point x="970" y="25"/>
      <point x="874" y="-24"/>
    </contour>
  </outline>
</glyph>
<glyph name="f" format="1">
  <advance width="755"/>
  <unicode hex="0066"/>
  <outline>
    <contour>
      <point x="132" y="0" type="line"/>
      <point x="132" y="808" type="line"/>
      <point x="7" y="808" type="line"/>
      <point x="7" y="1038" type="line"/>
      <point x="132" y="1038" type="line"/>
      <point x="132" y="1099" type="line" smooth="yes"/>
      <point x="132" y="1350"/>
      <point x="287" y="1466"/>
      <point x="556" y="1466" type="curve" smooth="yes"/>
      <point x="630" y="1466"/>
      <point x="713" y="1458"/>
      <point x="770" y="1452" type="curve"/>
      <point x="770" y="1200" type="line"/>
      <point x="734.998" y="1203.46"/>
      <point x="702.674" y="1206.06"/>
      <point x="673.577" y="1206.06" type="curve" smooth="yes"/>
      <point x="572.221" y="1206.06"/>
      <point x="510" y="1174.53"/>
      <point x="510" y="1038" type="curve"/>
      <point x="754" y="1038" type="line"/>
      <point x="754" y="808" type="line"/>
      <point x="519" y="808" type="line"/>
      <point x="519" y="0" type="line"/>
    </contour>
  </outline>
</glyph>
<glyph name="g" format="1">
  <advance width="1231"/>
  <unicode hex="0067"/>
  <outline>
    <contour>
      <point x="629" y="286" type="curve" smooth="yes"/>
      <point x="682" y="286"/>
      <point x="707" y="307"/>
      <point x="738" y="320" type="curve"/>
      <point x="738" y="755" type="line"/>
      <point x="695" y="773"/>
      <point x="662" y="765"/>
      <point x="661" y="765" type="curve" smooth="yes"/>
      <point x="533" y="765"/>
      <point x="481" y="657"/>
      <point x="481" y="551" type="curve" smooth="yes"/>
      <point x="481" y="378"/>
      <point x="479" y="286"/>
    </contour>
    <contour>
      <point x="545" y="-408" type="curve" smooth="yes"/>
      <point x="392" y="-408"/>
      <point x="252" y="-363"/>
      <point x="157" y="-325" type="curve"/>
      <point x="220" y="-64" type="line"/>
      <point x="329" y="-112"/>
      <point x="454" y="-133"/>
      <point x="508" y="-133" type="curve" smooth="yes"/>
      <point x="687" y="-133"/>
      <point x="745" y="-116"/>
      <point x="746" y="59" type="curve"/>
      <point x="746" y="113" type="line"/>
      <point x="721" y="46"/>
      <point x="613" y="9"/>
      <point x="533" y="9" type="curve" smooth="yes"/>
      <point x="256" y="9"/>
      <point x="80" y="195"/>
      <point x="80" y="542" type="curve" smooth="yes"/>
      <point x="80" y="843"/>
      <point x="194" y="1060"/>
      <point x="467" y="1060" type="curve" smooth="yes"/>
      <point x="575" y="1060"/>
      <point x="649" y="1025"/>
      <point x="738" y="904" type="curve"/>
      <point x="739" y="1035" type="line"/>
      <point x="1138" y="1035" type="line"/>
      <point x="1138" y="74" type="line" smooth="yes"/>
      <point x="1138" y="-298"/>
      <point x="840" y="-408"/>
    </contour>
  </outline>
</glyph>
<glyph name="h" format="1">
  <advance width="1253"/>
  <unicode hex="0068"/>
  <outline>
    <contour>
      <point x="124" y="0" type="line"/>
      <point x="124" y="1481" type="line"/>
      <point x="512" y="1481" type="line"/>
      <point x="512" y="877" type="line"/>
      <point x="537" y="929"/>
      <point x="624" y="1060"/>
      <point x="798" y="1060" type="curve" smooth="yes"/>
      <point x="1017" y="1060"/>
      <point x="1145" y="921"/>
      <point x="1145" y="675" type="curve" smooth="yes"/>
      <point x="1145" y="0" type="line"/>
      <point x="757" y="0" type="line"/>
      <point x="757" y="506" type="line" smooth="yes"/>
      <point x="757" y="661"/>
      <point x="752" y="741"/>
      <point x="626" y="741" type="curve" smooth="yes"/>
      <point x="565" y="741"/>
      <point x="512" y="677"/>
      <point x="512" y="571" type="curve" smooth="yes"/>
      <point x="512" y="0" type="line"/>
    </contour>
  </outline>
</glyph>
<glyph name="i" format="1">
  <advance width="692"/>
  <unicode hex="0069"/>
  <outline>
    <contour>
      <point x="346" y="1204" type="curve" smooth="yes"/>
      <point x="197" y="1204"/>
      <point x="124" y="1284"/>
      <point x="124" y="1391" type="curve" smooth="yes"/>
      <point x="124" y="1496"/>
      <point x="198" y="1579"/>
      <point x="346" y="1579" type="curve" smooth="yes"/>
      <point x="495" y="1579"/>
      <point x="569" y="1495"/>
      <point x="569" y="1389" type="curve" smooth="yes"/>
      <point x="569" y="1282"/>
      <point x="494" y="1204"/>
    </contour>
    <contour>
      <point x="153" y="0" type="line"/>
      <point x="153" y="1038" type="line"/>
      <point x="541" y="1038" type="line"/>
      <point x="541" y="0" type="line"/>
    </contour>
  </outline>
</glyph>
<glyph name="j" format="1">
  <advance width="740"/>
  <unicode hex="006A"/>
  <outline>
    <contour>
      <point x="413" y="1204" type="curve" smooth="yes"/>
      <point x="264" y="1204"/>
      <point x="191" y="1284"/>
      <point x="191" y="1391" type="curve" smooth="yes"/>
      <point x="191" y="1496"/>
      <point x="265" y="1579"/>
      <point x="413" y="1579" type="curve" smooth="yes"/>
      <point x="562" y="1579"/>
      <point x="636" y="1495"/>
      <point x="636" y="1389" type="curve" smooth="yes"/>
      <point x="636" y="1282"/>
      <point x="561" y="1204"/>
    </contour>
    <contour>
      <point x="162" y="-405" type="curve" smooth="yes"/>
      <point x="59" y="-405"/>
      <point x="-47" y="-391"/>
      <point x="-79" y="-388" type="curve"/>
      <point x="-79" y="-113" type="line"/>
      <point x="-79" y="-113"/>
      <point x="2" y="-119"/>
      <point x="33" y="-119" type="curve" smooth="yes"/>
      <point x="135" y="-119"/>
      <point x="201" y="-83"/>
      <point x="201" y="122" type="curve" smooth="yes"/>
      <point x="201" y="1038" type="line"/>
      <point x="588" y="1038" type="line"/>
      <point x="588" y="-81" type="line" smooth="yes"/>
      <point x="588" y="-301"/>
      <point x="393" y="-405"/>
    </contour>
  </outline>
</glyph>
<glyph name="k" format="1">
  <advance width="1219"/>
  <unicode hex="006B"/>
  <outline>
    <contour>
      <point x="121" y="0" type="line"/>
      <point x="121" y="1481" type="line"/>
      <point x="509" y="1481" type="line"/>
      <point x="509" y="655" type="line"/>
      <point x="779" y="1038" type="line"/>
      <point x="1203" y="1038" type="line"/>
      <point x="1203" y="994" type="line"/>
      <point x="892" y="597" type="line"/>
      <point x="1210" y="87" type="line"/>
      <point x="1210" y="0" type="line"/>
      <point x="801" y="0" type="line"/>
      <point x="576" y="445" type="line"/>
      <point x="509" y="355" type="line"/>
      <point x="509" y="0" type="line"/>
    </contour>
  </outline>
</glyph>
<glyph name="l" format="1">
  <advance width="713"/>
  <unicode hex="006C"/>
  <outline>
    <contour>
      <point x="544" y="-5" type="line" smooth="yes"/>
      <point x="149" y="-5"/>
      <point x="124" y="155"/>
      <point x="124" y="352" type="curve" smooth="yes"/>
      <point x="124" y="1481" type="line"/>
      <point x="511" y="1481" type="line"/>
      <point x="511" y="377" type="line" smooth="yes"/>
      <point x="511" y="313"/>
      <point x="537" y="247"/>
      <point x="632" y="247" type="curve"/>
      <point x="632" y="-5" type="line"/>
    </contour>
  </outline>
</glyph>
<glyph name="m" format="1">
  <advance width="1870"/>
  <unicode hex="006D"/>
  <outline>
    <contour>
      <point x="121" y="0" type="line"/>
      <point x="121" y="1038" type="line"/>
      <point x="509" y="1038" type="line"/>
      <point x="509" y="850" type="line"/>
      <point x="585" y="983"/>
      <point x="701" y="1060"/>
      <point x="829" y="1060" type="curve" smooth="yes"/>
      <point x="944" y="1060"/>
      <point x="1053" y="1002"/>
      <point x="1101" y="852" type="curve"/>
      <point x="1168" y="1004"/>
      <point x="1315" y="1060"/>
      <point x="1438" y="1060" type="curve" smooth="yes"/>
      <point x="1620" y="1060"/>
      <point x="1774" y="948"/>
      <point x="1774" y="682" type="curve" smooth="yes"/>
      <point x="1774" y="0" type="line"/>
      <point x="1386" y="0" type="line"/>
      <point x="1386" y="507" type="line" smooth="yes"/>
      <point x="1386" y="696"/>
      <point x="1376" y="756"/>
      <point x="1251" y="756" type="curve" smooth="yes"/>
      <point x="1224" y="756"/>
      <point x="1141" y="721"/>
      <point x="1141" y="682" type="curve" smooth="yes"/>
      <point x="1141" y="0" type="line"/>
      <point x="754" y="0" type="line"/>
      <point x="754" y="532" type="line" smooth="yes"/>
      <point x="754" y="700"/>
      <point x="734" y="756"/>
      <point x="621" y="756" type="curve" smooth="yes"/>
      <point x="574" y="756"/>
      <point x="509" y="737"/>
      <point x="509" y="682" type="curve" smooth="yes"/>
      <point x="509" y="0" type="line"/>
    </contour>
  </outline>
</glyph>
<glyph name="n" format="1">
  <advance width="1246"/>
  <unicode hex="006E"/>
  <outline>
    <contour>
      <point x="124" y="0" type="line"/>
      <point x="124" y="1038" type="line"/>
      <point x="512" y="1038" type="line"/>
      <point x="512" y="835" type="line"/>
      <point x="553" y="942"/>
      <point x="677" y="1060"/>
      <point x="822" y="1060" type="curve" smooth="yes"/>
      <point x="972" y="1060"/>
      <point x="1148" y="947"/>
      <point x="1148" y="701" type="curve" smooth="yes"/>
      <point x="1148" y="0" type="line"/>
      <point x="760" y="0" type="line"/>
      <point x="760" y="521" type="line" smooth="yes"/>
      <point x="760" y="693"/>
      <point x="736" y="756"/>
      <point x="621" y="756" type="curve" smooth="yes"/>
      <point x="544" y="756"/>
      <point x="512" y="683"/>
      <point x="512" y="638" type="curve" smooth="yes"/>
      <point x="512" y="0" type="line"/>
    </contour>
  </outline>
</glyph>
<glyph name="o" format="1">
  <advance width="1258"/>
  <unicode hex="006F"/>
  <outline>
    <contour>
      <point x="629" y="-24" type="curve" smooth="yes"/>
      <point x="239" y="-24"/>
      <point x="80" y="180"/>
      <point x="80" y="517" type="curve" smooth="yes"/>
      <point x="80" y="855"/>
      <point x="236" y="1059"/>
      <point x="629" y="1059" type="curve" smooth="yes"/>
      <point x="1015" y="1059"/>
      <point x="1178" y="853"/>
      <point x="1178" y="516" type="curve" smooth="yes"/>
      <point x="1178" y="181"/>
      <point x="1015" y="-24"/>
    </contour>
    <contour>
      <point x="633" y="248" type="curve" smooth="yes"/>
      <point x="721" y="248"/>
      <point x="774" y="303"/>
      <point x="774" y="516" type="curve" smooth="yes"/>
      <point x="774" y="758"/>
      <point x="701" y="787"/>
      <point x="629" y="787" type="curve" smooth="yes"/>
      <point x="555" y="787"/>
      <point x="483" y="771"/>
      <point x="483" y="515" type="curve" smooth="yes"/>
      <point x="483" y="264"/>
      <point x="550" y="248"/>
    </contour>
  </outline>
</glyph>
<glyph name="p" format="1">
  <advance width="1308"/>
  <unicode hex="0070"/>
  <outline>
    <contour>
      <point x="826" y="527" type="curve" smooth="yes"/>
      <point x="826" y="733.376"/>
      <point x="746.266" y="786.812"/>
      <point x="666.774" y="786.812" type="curve" smooth="yes"/>
      <point x="587.768" y="786.812"/>
      <point x="509" y="734"/>
      <point x="509" y="734" type="curve"/>
      <point x="509" y="271" type="line"/>
      <point x="548.504" y="265.709"/>
      <point x="583.784" y="262.795"/>
      <point x="615.126" y="262.795" type="curve" smooth="yes"/>
      <point x="766.454" y="262.795"/>
      <point x="826" y="330.721"/>
    </contour>
    <contour>
      <point x="121" y="-392" type="line"/>
      <point x="121" y="1038" type="line"/>
      <point x="509" y="1038" type="line"/>
      <point x="509" y="867" type="line"/>
      <point x="574" y="991"/>
      <point x="666" y="1059"/>
      <point x="803" y="1059" type="curve" smooth="yes"/>
      <point x="1083" y="1059"/>
      <point x="1228" y="850"/>
      <point x="1228" y="530" type="curve" smooth="yes"/>
      <point x="1228" y="196.9"/>
      <point x="1056" y="-24"/>
      <point x="774" y="-24" type="curve" smooth="yes"/>
      <point x="672" y="-24"/>
      <point x="606" y="-11"/>
      <point x="509" y="43" type="curve"/>
      <point x="509" y="-392" type="line"/>
    </contour>
  </outline>
</glyph>
<glyph name="q" format="1">
  <advance width="1309"/>
  <unicode hex="0071"/>
  <outline>
    <contour>
      <point x="485" y="527" type="curve" smooth="yes"/>
      <point x="485" y="331"/>
      <point x="545" y="263"/>
      <point x="696" y="263" type="curve" smooth="yes"/>
      <point x="727" y="263"/>
      <point x="762" y="266"/>
      <point x="802" y="271" type="curve"/>
      <point x="802" y="734" type="line"/>
      <point x="802" y="734"/>
      <point x="723" y="787"/>
      <point x="644" y="787" type="curve" smooth="yes"/>
      <point x="565" y="787"/>
      <point x="485" y="733"/>
    </contour>
    <contour>
      <point x="802" y="-392" type="line"/>
      <point x="802" y="72" type="line"/>
      <point x="735" y="10"/>
      <point x="651" y="-24"/>
      <point x="547" y="-24" type="curve" smooth="yes"/>
      <point x="256" y="-24"/>
      <point x="82" y="200"/>
      <point x="82" y="540" type="curve" smooth="yes"/>
      <point x="82" y="846"/>
      <point x="178" y="1059"/>
      <point x="488" y="1059" type="curve" smooth="yes"/>
      <point x="582" y="1059"/>
      <point x="737" y="1009"/>
      <point x="802" y="907" type="curve"/>
      <point x="802" y="1038" type="line"/>
      <point x="1190" y="1038" type="line"/>
      <point x="1190" y="-392" type="line"/>
    </contour>
  </outline>
</glyph>
<glyph name="s" format="1">
  <advance width="1097"/>
  <unicode hex="0073"/>
  <outline>
    <contour>
      <point x="553" y="-24" type="curve" smooth="yes"/>
      <point x="396" y="-24"/>
      <point x="167" y="16"/>
      <point x="65" y="71" type="curve"/>
      <point x="177" y="318" type="line"/>
      <point x="195" y="318" type="line"/>
      <point x="253" y="270"/>
      <point x="369" y="229"/>
      <point x="522" y="229" type="curve" smooth="yes"/>
      <point x="569" y="229"/>
      <point x="629" y="236"/>
      <point x="629" y="283" type="curve" smooth="yes"/>
      <point x="629" y="351"/>
      <point x="513" y="354"/>
      <point x="374" y="388" type="curve"/>
      <point x="142" y="443"/>
      <point x="85" y="512"/>
      <point x="85" y="703" type="curve" smooth="yes"/>
      <point x="85" y="904"/>
      <point x="286" y="1059"/>
      <point x="599" y="1059" type="curve" smooth="yes"/>
      <point x="753" y="1059"/>
      <point x="898" y="1020"/>
      <point x="1009" y="966" type="curve"/>
      <point x="903" y="726" type="line"/>
      <point x="889" y="726" type="line"/>
      <point x="830" y="761"/>
      <point x="759" y="803"/>
      <point x="641" y="803" type="curve" smooth="yes"/>
      <point x="547" y="803"/>
      <point x="493" y="768"/>
      <point x="493" y="734" type="curve" smooth="yes"/>
      <point x="493" y="702"/>
      <point x="492" y="693"/>
      <point x="664" y="655" type="curve"/>
      <point x="944" y="591"/>
      <point x="1046" y="522"/>
      <point x="1046" y="324" type="curve" smooth="yes"/>
      <point x="1046" y="115"/>
      <point x="889" y="-24"/>
    </contour>
  </outline>
</glyph>
<glyph name="t" format="1">
  <advance width="828"/>
  <unicode hex="0074"/>
  <outline>
    <contour>
      <point x="515" y="-13" type="curve" smooth="yes"/>
      <point x="266" y="-13"/>
      <point x="158" y="89"/>
      <point x="158" y="328" type="curve" smooth="yes"/>
      <point x="158" y="808" type="line"/>
      <point x="35" y="808" type="line"/>
      <point x="35" y="1038" type="line"/>
      <point x="158" y="1038" type="line"/>
      <point x="158" y="1295" type="line"/>
      <point x="546" y="1365" type="line"/>
      <point x="546" y="1038" type="line"/>
      <point x="766" y="1038" type="line"/>
      <point x="766" y="808" type="line"/>
      <point x="546" y="808" type="line"/>
      <point x="546" y="376" type="line" smooth="yes"/>
      <point x="546" y="276.619"/>
      <point x="610.679" y="250.677"/>
      <point x="688.967" y="250.677" type="curve" smooth="yes"/>
      <point x="713.818" y="250.677"/>
      <point x="740.04" y="253.291"/>
      <point x="766" y="257" type="curve"/>
      <point x="766" y="5" type="line"/>
      <point x="701" y="-8"/>
      <point x="625" y="-13"/>
    </contour>
  </outline>
</glyph>
<glyph name="u" format="1">
  <advance width="1253"/>
  <unicode hex="0075"/>
  <outline>
    <contour>
      <point x="441" y="-24" type="curve" smooth="yes"/>
      <point x="273" y="-24"/>
      <point x="99" y="93"/>
      <point x="99" y="339" type="curve" smooth="yes"/>
      <point x="99" y="1038" type="line"/>
      <point x="502" y="1038" type="line"/>
      <point x="502" y="515" type="line" smooth="yes"/>
      <point x="502" y="343"/>
      <point x="523" y="263"/>
      <point x="641" y="263" type="curve" smooth="yes"/>
      <point x="676" y="263"/>
      <point x="746" y="298"/>
      <point x="746" y="357" type="curve" smooth="yes"/>
      <point x="746" y="1038" type="line"/>
      <point x="1133" y="1038" type="line"/>
      <point x="1133" y="0" type="line"/>
      <point x="746" y="0" type="line"/>
      <point x="746" y="171" type="line"/>
      <point x="683" y="28"/>
      <point x="556" y="-24"/>
    </contour>
  </outline>
</glyph>
<glyph name="v" format="1">
  <advance width="1067"/>
  <unicode hex="0076"/>
  <outline>
    <contour>
      <point x="328" y="0" type="line"/>
      <point x="-26" y="1038" type="line"/>
      <point x="378" y="1038" type="line"/>
      <point x="506" y="540" type="line"/>
      <point x="537" y="398" type="line"/>
      <point x="540" y="398" type="line"/>
      <point x="572" y="541" type="line" smooth="yes"/>
      <point x="706" y="1038" type="line"/>
      <point x="1093" y="1038" type="line"/>
      <point x="734" y="0" type="line"/>
    </contour>
  </outline>
</glyph>
<glyph name="w" format="1">
  <advance width="1733"/>
  <unicode hex="0077"/>
  <outline>
    <contour>
      <point x="310" y="0" type="line"/>
      <point x="-8" y="1038" type="line"/>
      <point x="398" y="1038" type="line"/>
      <point x="508" y="459" type="line"/>
      <point x="522" y="384" type="line"/>
      <point x="524" y="384" type="line"/>
      <point x="547" y="462" type="line" smooth="yes"/>
      <point x="722" y="1038" type="line"/>
      <point x="1032" y="1038" type="line"/>
      <point x="1172" y="515" type="line" smooth="yes"/>
      <point x="1205" y="390" type="line"/>
      <point x="1226" y="501" type="line"/>
      <point x="1334" y="1038" type="line"/>
      <point x="1740" y="1038" type="line"/>
      <point x="1422" y="0" type="line"/>
      <point x="1022" y="0" type="line"/>
      <point x="866" y="650" type="line"/>
      <point x="864" y="650" type="line"/>
      <point x="704" y="0" type="line"/>
    </contour>
  </outline>
</glyph>
<glyph name="x" format="1">
  <advance width="1127"/>
  <unicode hex="0078"/>
  <outline>
    <contour>
      <point x="-26" y="0" type="line"/>
      <point x="330" y="525" type="line"/>
      <point x="-12" y="1038" type="line"/>
      <point x="410" y="1038" type="line"/>
      <point x="486" y="900" type="line"/>
      <point x="562" y="756" type="line"/>
      <point x="640" y="896" type="line"/>
      <point x="718" y="1038" type="line"/>
      <point x="1140" y="1038" type="line"/>
      <point x="800" y="533" type="line"/>
      <point x="1154" y="0" type="line"/>
      <point x="722" y="0" type="line"/>
      <point x="646" y="148" type="line"/>
      <point x="564" y="300" type="line"/>
      <point x="480" y="145" type="line"/>
      <point x="400" y="0" type="line"/>
    </contour>
  </outline>
</glyph>
<glyph name="y" format="1">
  <advance width="1217"/>
  <unicode hex="0079"/>
  <outline>
    <contour>
      <point x="222" y="-393" type="line"/>
      <point x="287" y="-260"/>
      <point x="346" y="-121"/>
      <point x="406" y="55" type="curve"/>
      <point x="36" y="1038" type="line"/>
      <point x="450" y="1038" type="line"/>
      <point x="621" y="479" type="line"/>
      <point x="771" y="1038" type="line"/>
      <point x="1175" y="1038" type="line"/>
      <point x="775" y="-104" type="line"/>
      <point x="726" y="-238"/>
      <point x="639" y="-393"/>
      <point x="638" y="-393" type="curve" smooth="yes"/>
    </contour>
    <contour>
      <point x="609" y="1038" type="move" name="top"/>
    </contour>
  </outline>
</glyph>
<glyph name="z" format="1">
  <advance width="1001"/>
  <unicode hex="007A"/>
  <outline>
    <contour>
      <point x="62" y="0" type="line"/>
      <point x="62" y="240" type="line"/>
      <point x="467" y="761" type="line"/>
      <point x="90" y="761" type="line"/>
      <point x="90" y="1038" type="line"/>
      <point x="919" y="1038" type="line"/>
      <point x="919" y="795" type="line"/>
      <point x="536" y="286" type="line"/>
      <point x="924" y="286" type="line"/>
      <point x="924" y="0" type="line"/>
    </contour>
  </outline>
</glyph>
<glyph name="braceleft" format="1">
  <advance width="1163"/>
  <unicode hex="007B"/>
  <outline>
    <contour>
      <point x="864" y="-361" type="line" smooth="yes"/>
      <point x="565" y="-361"/>
      <point x="354" y="-301"/>
      <point x="354" y="20" type="curve" smooth="yes"/>
      <point x="354" y="162" type="line" smooth="yes"/>
      <point x="354" y="388"/>
      <point x="262" y="475"/>
      <point x="7" y="475" type="curve"/>
      <point x="7" y="709" type="line"/>
      <point x="260" y="709"/>
      <point x="354" y="784"/>
      <point x="354" y="1020" type="curve" smooth="yes"/>
      <point x="354" y="1208" type="line" smooth="yes"/>
      <point x="354" y="1504"/>
      <point x="594" y="1546"/>
      <point x="881" y="1546" type="curve" smooth="yes"/>
      <point x="1059" y="1546" type="line"/>
      <point x="1059" y="1320" type="line"/>
      <point x="1025" y="1320" type="line" smooth="yes"/>
      <point x="845" y="1320"/>
      <point x="727" y="1300"/>
      <point x="727" y="1090" type="curve" smooth="yes"/>
      <point x="727" y="1028" type="line" smooth="yes"/>
      <point x="727" y="773"/>
      <point x="630" y="662"/>
      <point x="450" y="604" type="curve"/>
      <point x="450" y="580" type="line"/>
      <point x="597" y="534"/>
      <point x="727" y="431"/>
      <point x="727" y="211" type="curve" smooth="yes"/>
      <point x="727" y="128" type="line" smooth="yes"/>
      <point x="727" y="-118"/>
      <point x="826" y="-135"/>
      <point x="1014" y="-135" type="curve"/>
      <point x="1059" y="-134" type="line"/>
      <point x="1059" y="-361" type="line"/>
    </contour>
  </outline>
</glyph>
<glyph name="yen" format="1">
  <advance width="1606"/>
  <unicode hex="00A5"/>
  <outline>
    <contour>
      <point x="582" y="0" type="line"/>
      <point x="582" y="409" type="line"/>
      <point x="241" y="409" type="line"/>
      <point x="241" y="648" type="line"/>
      <point x="579" y="648" type="line"/>
      <point x="508" y="763" type="line"/>
      <point x="241" y="763" type="line"/>
      <point x="241" y="1009" type="line"/>
      <point x="371" y="1009" type="line"/>
      <point x="101" y="1481" type="line"/>
      <point x="581" y="1481" type="line"/>
      <point x="817" y="992" type="line"/>
      <point x="1040" y="1481" type="line"/>
      <point x="1502" y="1481" type="line"/>
      <point x="1242" y="1009" type="line"/>
      <point x="1398" y="1009" type="line"/>
      <point x="1398" y="763" type="line"/>
      <point x="1102" y="763" type="line"/>
      <point x="1037" y="648" type="line"/>
      <point x="1398" y="648" type="line"/>
      <point x="1398" y="409" type="line"/>
      <point x="1037" y="409" type="line"/>
      <point x="1037" y="0" type="line"/>
    </contour>
  </outline>
</glyph>
<glyph name="registered" format="1">
  <advance width="1927"/>
  <unicode hex="00AE"/>
  <outline>
    <contour>
      <point x="965" y="-111" type="curve" smooth="yes"/>
      <point x="491" y="-111"/>
      <point x="99" y="207"/>
      <point x="99" y="702" type="curve" smooth="yes"/>
      <point x="99" y="1172"/>
      <point x="472" y="1515"/>
      <point x="965" y="1515" type="curve" smooth="yes"/>
      <point x="1444" y="1515"/>
      <point x="1828" y="1176"/>
      <point x="1828" y="702" type="curve" smooth="yes"/>
      <point x="1828" y="232"/>
      <point x="1457" y="-111"/>
    </contour>
    <contour>
      <point x="959" y="18" type="curve" smooth="yes"/>
      <point x="1399" y="18"/>
      <point x="1676" y="313"/>
      <point x="1676" y="705" type="curve" smooth="yes"/>
      <point x="1676" y="1102"/>
      <point x="1377" y="1385"/>
      <point x="959" y="1385" type="curve" smooth="yes"/>
      <point x="526" y="1385"/>
      <point x="253" y="1082"/>
      <point x="253" y="699" type="curve" smooth="yes"/>
      <point x="253" y="300"/>
      <point x="544" y="18"/>
    </contour>
    <contour>
      <point x="800" y="776" type="line"/>
      <point x="961" y="776" type="line" smooth="yes"/>
      <point x="1089" y="776"/>
      <point x="1126" y="817"/>
      <point x="1126" y="915" type="curve" smooth="yes"/>
      <point x="1126" y="995"/>
      <point x="1052" y="1037"/>
      <point x="943" y="1037" type="curve" smooth="yes"/>
      <point x="800" y="1037" type="line"/>
    </contour>
    <contour>
      <point x="623" y="254" type="line"/>
      <point x="623" y="1172" type="line"/>
      <point x="928" y="1172" type="line" smooth="yes"/>
      <point x="1101" y="1172"/>
      <point x="1297" y="1146"/>
      <point x="1297" y="907" type="curve" smooth="yes"/>
      <point x="1297" y="774"/>
      <point x="1271" y="716"/>
      <point x="1132" y="660" type="curve"/>
      <point x="1343" y="298" type="line"/>
      <point x="1343" y="254" type="line"/>
      <point x="1172" y="254" type="line"/>
      <point x="965" y="632" type="line"/>
      <point x="800" y="632" type="line"/>
      <point x="800" y="254" type="line"/>
    </contour>
  </outline>
</glyph>
<glyph name="Thorn" format="1">
  <advance width="1427"/>
  <unicode hex="00DE"/>
  <outline>
    <contour>
      <point x="584" y="649" type="line"/>
      <point x="772" y="650"/>
      <point x="958" y="647"/>
      <point x="958" y="846" type="curve" smooth="yes"/>
      <point x="958" y="995"/>
      <point x="838" y="1011"/>
      <point x="584" y="1011" type="curve"/>
    </contour>
    <contour>
      <point x="124" y="0" type="line"/>
      <point x="124" y="1481" type="line"/>
      <point x="584" y="1481" type="line"/>
      <point x="584" y="1309" type="line"/>
      <point x="863" y="1309" type="line" smooth="yes"/>
      <point x="1140" y="1309"/>
      <point x="1429" y="1194"/>
      <point x="1429" y="853" type="curve" smooth="yes"/>
      <point x="1429" y="557"/>
      <point x="1212" y="342"/>
      <point x="837" y="342" type="curve" smooth="yes"/>
      <point x="584" y="342" type="line"/>
      <point x="584" y="0" type="line"/>
    </contour>
  </outline>
</glyph>
<glyph name="germandbls" format="1">
  <advance width="1286"/>
  <unicode hex="00DF"/>
  <outline>
    <contour>
      <point x="118" y="0" type="line"/>
      <point x="118" y="1029" type="line" smooth="yes"/>
      <point x="118" y="1334"/>
      <point x="289" y="1505"/>
      <point x="627" y="1505" type="curve" smooth="yes"/>
      <point x="937" y="1505"/>
      <point x="1134" y="1363"/>
      <point x="1134" y="1163" type="curve" smooth="yes"/>
      <point x="1134" y="1007"/>
      <point x="1007" y="897"/>
      <point x="871" y="875" type="curve"/>
      <point x="871" y="857" type="line"/>
      <point x="1146" y="808"/>
      <point x="1263" y="631"/>
      <point x="1263" y="467" type="curve" smooth="yes"/>
      <point x="1263" y="152"/>
      <point x="1054" y="-5"/>
      <point x="703" y="-5" type="curve" smooth="yes"/>
      <point x="686" y="-5"/>
      <point x="649" y="-1"/>
      <point x="606" y="0" type="curve"/>
      <point x="606" y="294" type="line"/>
      <point x="630" y="294" type="line" smooth="yes"/>
      <point x="779" y="294"/>
      <point x="870" y="342"/>
      <point x="870" y="488" type="curve" smooth="yes"/>
      <point x="870" y="618"/>
      <point x="762" y="675"/>
      <point x="603" y="675" type="curve"/>
      <point x="603" y="990" type="line"/>
      <point x="743" y="990"/>
      <point x="803" y="1055"/>
      <point x="803" y="1118" type="curve" smooth="yes"/>
      <point x="803" y="1178"/>
      <point x="750" y="1236"/>
      <point x="660" y="1236" type="curve" smooth="yes"/>
      <point x="511" y="1236"/>
      <point x="507" y="1139"/>
      <point x="507" y="1068" type="curve" smooth="yes"/>
      <point x="507" y="0" type="line"/>
    </contour>
  </outline>
</glyph>
<glyph name="oslash" format="1">
  <advance width="1165"/>
  <unicode hex="00F8"/>
  <outline>
    <contour>
      <point x="271" y="-182" type="line"/>
      <point x="163" y="-182" type="line"/>
      <point x="298" y="47" type="line"/>
      <point x="146" y="136"/>
      <point x="80" y="300"/>
      <point x="80" y="517" type="curve" smooth="yes"/>
      <point x="80" y="855"/>
      <point x="236" y="1059"/>
      <point x="629" y="1059" type="curve" smooth="yes"/>
      <point x="723" y="1059"/>
      <point x="804" y="1046"/>
      <point x="872" y="1023" type="curve"/>
      <point x="983" y="1212" type="line"/>
      <point x="1098" y="1212" type="line"/>
      <point x="962" y="982" type="line"/>
      <point x="1111" y="893"/>
      <point x="1178" y="732"/>
      <point x="1178" y="516" type="curve" smooth="yes"/>
      <point x="1178" y="181"/>
      <point x="1015" y="-28"/>
      <point x="629" y="-28" type="curve" smooth="yes"/>
      <point x="534" y="-28"/>
      <point x="453" y="-16"/>
      <point x="384" y="8" type="curve"/>
    </contour>
    <contour>
      <point x="633" y="249" type="curve"/>
      <point x="721" y="249"/>
      <point x="794" y="303"/>
      <point x="794" y="516" type="curve" smooth="yes"/>
      <point x="794" y="581"/>
      <point x="787" y="631"/>
      <point x="776" y="669" type="curve"/>
      <point x="538" y="269" type="line"/>
      <point x="567" y="251"/>
      <point x="627" y="250"/>
    </contour>
    <contour>
      <point x="478" y="354" type="curve"/>
      <point x="718" y="761" type="line"/>
      <point x="690" y="782"/>
      <point x="658" y="787"/>
      <point x="629" y="787" type="curve" smooth="yes"/>
      <point x="555" y="787"/>
      <point x="459" y="771"/>
      <point x="459" y="515" type="curve" smooth="yes"/>
      <point x="459" y="444"/>
      <point x="466" y="392"/>
    </contour>
  </outline>
</glyph>
<glyph name="florin" format="1">
  <advance width="1178"/>
  <unicode hex="0192"/>
  <outline>
    <contour>
      <point x="206" y="-200" type="curve" smooth="yes"/>
      <point x="163" y="-200"/>
      <point x="59" y="-196"/>
      <point x="14" y="-189" type="curve"/>
      <point x="10" y="103" type="line"/>
      <point x="40" y="111"/>
      <point x="102" y="86"/>
      <point x="183" y="86" type="curve" smooth="yes"/>
      <point x="330" y="86"/>
      <point x="365" y="333"/>
      <point x="367" y="435" type="curve"/>
      <point x="367" y="434"/>
      <point x="366" y="433"/>
      <point x="366" y="432" type="curve"/>
      <point x="375" y="493"/>
      <point x="404" y="676"/>
      <point x="392" y="605" type="curve"/>
      <point x="277" y="605" type="line"/>
      <point x="277" y="841" type="line"/>
      <point x="425" y="841" type="line"/>
      <point x="447" y="992" type="line"/>
      <point x="507" y="1370"/>
      <point x="746" y="1387"/>
      <point x="961" y="1387" type="curve" smooth="yes"/>
      <point x="1004" y="1387"/>
      <point x="1071" y="1386"/>
      <point x="1138" y="1377" type="curve"/>
      <point x="1143" y="1083" type="line"/>
      <point x="1128" y="1078"/>
      <point x="1048" y="1095"/>
      <point x="981" y="1095" type="curve" smooth="yes"/>
      <point x="843" y="1095"/>
      <point x="830" y="1004"/>
      <point x="828" y="982" type="curve"/>
      <point x="833" y="1008"/>
      <point x="810" y="817"/>
      <point x="815" y="841" type="curve"/>
      <point x="1011" y="841" type="line"/>
      <point x="1012" y="605" type="line"/>
      <point x="775" y="605" type="line"/>
      <point x="707" y="167" type="line" smooth="yes"/>
      <point x="665" y="-100"/>
      <point x="439" y="-200"/>
    </contour>
    <contour>
      <point x="366" y="432" type="curve"/>
      <point x="362" y="403"/>
      <point x="363" y="409"/>
    </contour>
  </outline>
</glyph>
<glyph name="dblgravecmb" format="1">
  <advance width="900"/>
  <outline>
    <contour>
      <point x="496" y="1186" type="line"/>
      <point x="265" y="1534" type="line"/>
      <point x="644" y="1534" type="line"/>
      <point x="771" y="1186" type="line"/>
    </contour>
    <contour>
      <point x="-21" y="1186" type="line"/>
      <point x="-243" y="1534" type="line"/>
      <point x="143" y="1534" type="line"/>
      <point x="257" y="1186" type="line"/>
    </contour>
  </outline>
</glyph>
